<?xml version="1.0" standalone="no"?>
<!DOCTYPE svg PUBLIC "-//W3C//DTD SVG 20010904//EN"
 "http://www.w3.org/TR/2001/REC-SVG-20010904/DTD/svg10.dtd">
<svg version="1.0" xmlns="http://www.w3.org/2000/svg"
 width="180px" height="180px" viewBox="0 0 512.000000 512.000000"
 preserveAspectRatio="xMidYMid meet">

<g transform="translate(0.000000,512.000000) scale(0.100000,-0.100000)"
fill="#000" stroke="none">
<path d="M675 4412 c-108 -37 -208 -120 -254 -210 -53 -103 -51 -54 -51 -1482
0 -1463 -3 -1388 63 -1499 42 -70 113 -133 195 -173 l67 -33 1620 -3 c1598 -2
1621 -2 1686 18 125 38 234 143 278 270 11 30 120 375 243 765 l223 710 0 100
c0 95 -2 104 -37 178 -80 168 -231 257 -434 257 l-64 0 0 163 c0 178 -12 245
-57 329 -32 59 -101 130 -159 164 -102 60 -76 58 -859 64 -682 5 -722 6 -755
24 -19 10 -98 80 -175 156 -77 75 -160 148 -185 162 -100 58 -103 58 -724 58
-515 -1 -576 -2 -621 -18z m1245 -166 c19 -10 98 -80 175 -155 143 -140 179
-168 256 -198 40 -16 109 -18 764 -23 l720 -5 57 -28 c32 -16 73 -47 93 -70
53 -62 65 -115 65 -299 l0 -158 -1408 0 c-976 0 -1427 -3 -1468 -11 -32 -6
-84 -22 -114 -37 -67 -31 -168 -130 -198 -192 -11 -25 -86 -254 -167 -510 -80
-256 -149 -476 -154 -490 -6 -15 -9 368 -8 990 l2 1015 30 54 c31 56 88 105
148 128 24 9 182 11 602 10 539 -2 572 -3 605 -21z m2508 -1125 c105 -47 170
-158 159 -270 -8 -79 -459 -1513 -491 -1561 -30 -46 -83 -88 -133 -106 -31
-11 -325 -13 -1628 -13 -1577 -1 -1590 0 -1635 20 -98 44 -160 133 -167 239
-4 62 6 98 230 813 155 492 243 761 261 787 32 48 91 89 154 106 37 10 375 12
1622 11 l1575 -2 53 -24z"/>
</g>
</svg>
