<?xml version="1.0" standalone="no"?>
<!DOCTYPE svg PUBLIC "-//W3C//DTD SVG 20010904//EN"
 "http://www.w3.org/TR/2001/REC-SVG-20010904/DTD/svg10.dtd">
<svg version="1.0" xmlns="http://www.w3.org/2000/svg"
 width="512.000000pt" height="512.000000pt" viewBox="0 0 512.000000 512.000000"
 preserveAspectRatio="xMidYMid meet">

<g transform="translate(0.000000,512.000000) scale(0.100000,-0.100000)"
fill="#6495EDCC" stroke="#fff">
<path d="M1670 4810 l0 -310 -505 0 -505 0 0 -460 0 -460 1905 0 1905 0 0 460
0 460 -505 0 -505 0 0 310 0 310 -895 0 -895 0 0 -310z m1480 -150 l0 -160
-595 0 -595 0 0 160 0 160 595 0 595 0 0 -160z"/>
<path d="M2730 2080 l0 -1000 150 0 150 0 0 1000 0 1000 -150 0 -150 0 0
-1000z"/>
<path d="M3370 2080 l0 -1000 150 0 150 0 0 1000 0 1000 -150 0 -150 0 0
-1000z"/>
<path d="M1450 2075 l0 -995 150 0 150 0 0 995 0 995 -150 0 -150 0 0 -995z"/>
<path d="M2090 2075 l0 -995 150 0 150 0 0 995 0 995 -150 0 -150 0 0 -995z"/>
<path d="M1140 285 l0 -285 1425 0 1425 0 0 285 0 285 -1425 0 -1425 0 0 -285z"/>
</g>
</svg>
